<svg width="26" height="28" viewBox="0 0 26 28" fill="none" xmlns="http://www.w3.org/2000/svg">
<path d="M0 3.32005C0 3.02997 0.115234 2.75177 0.320352 2.54665C0.52547 2.34154 0.80367 2.2263 1.09375 2.2263H1.9075C3.29292 2.2263 4.12417 3.15818 4.59812 4.02443C4.91458 4.60193 5.14354 5.2713 5.32292 5.87797L5.46875 5.87214H23.695C24.9054 5.87214 25.7804 7.03005 25.4479 8.19526L22.7821 17.5417C22.5431 18.38 22.0374 19.1177 21.3417 19.6429C20.6459 20.1681 19.798 20.4524 18.9263 20.4526H10.2521C9.37343 20.4526 8.51908 20.1641 7.82035 19.6313C7.12162 19.0986 6.61719 18.3511 6.38458 17.5038L5.27625 13.4613L3.43875 7.2663L3.43729 7.25464C3.20979 6.42776 2.99687 5.65339 2.67896 5.07589C2.37417 4.51443 2.12917 4.4138 1.90896 4.4138H1.09375C0.80367 4.4138 0.52547 4.29857 0.320352 4.09345C0.115234 3.88833 0 3.61013 0 3.32005ZM7.39813 12.9305L8.49333 16.9248C8.71208 17.7153 9.43104 18.2651 10.2521 18.2651H18.9263C19.3225 18.265 19.7079 18.1359 20.0242 17.8973C20.3405 17.6586 20.5704 17.3234 20.6792 16.9423L23.2123 8.05964H5.95729L7.37771 12.8532L7.39813 12.9305ZM12.3958 24.8305C12.3958 25.604 12.0885 26.3459 11.5416 26.8929C10.9946 27.4398 10.2527 27.7471 9.47917 27.7471C8.70562 27.7471 7.96375 27.4398 7.41677 26.8929C6.86979 26.3459 6.5625 25.604 6.5625 24.8305C6.5625 24.0569 6.86979 23.3151 7.41677 22.7681C7.96375 22.2211 8.70562 21.9138 9.47917 21.9138C10.2527 21.9138 10.9946 22.2211 11.5416 22.7681C12.0885 23.3151 12.3958 24.0569 12.3958 24.8305ZM10.2083 24.8305C10.2083 24.6371 10.1315 24.4516 9.99477 24.3149C9.85802 24.1781 9.67255 24.1013 9.47917 24.1013C9.28578 24.1013 9.10031 24.1781 8.96357 24.3149C8.82682 24.4516 8.75 24.6371 8.75 24.8305C8.75 25.0239 8.82682 25.2093 8.96357 25.3461C9.10031 25.4828 9.28578 25.5596 9.47917 25.5596C9.67255 25.5596 9.85802 25.4828 9.99477 25.3461C10.1315 25.2093 10.2083 25.0239 10.2083 24.8305ZM22.6042 24.8305C22.6042 25.604 22.2969 26.3459 21.7499 26.8929C21.2029 27.4398 20.461 27.7471 19.6875 27.7471C18.914 27.7471 18.1721 27.4398 17.6251 26.8929C17.0781 26.3459 16.7708 25.604 16.7708 24.8305C16.7708 24.0569 17.0781 23.3151 17.6251 22.7681C18.1721 22.2211 18.914 21.9138 19.6875 21.9138C20.461 21.9138 21.2029 22.2211 21.7499 22.7681C22.2969 23.3151 22.6042 24.0569 22.6042 24.8305ZM20.4167 24.8305C20.4167 24.6371 20.3398 24.4516 20.2031 24.3149C20.0664 24.1781 19.8809 24.1013 19.6875 24.1013C19.4941 24.1013 19.3086 24.1781 19.1719 24.3149C19.0352 24.4516 18.9583 24.6371 18.9583 24.8305C18.9583 25.0239 19.0352 25.2093 19.1719 25.3461C19.3086 25.4828 19.4941 25.5596 19.6875 25.5596C19.8809 25.5596 20.0664 25.4828 20.2031 25.3461C20.3398 25.2093 20.4167 25.0239 20.4167 24.8305Z" fill="#333333"/>
<rect x="8.35547" y="0.122131" width="13" height="14" rx="6.5" fill="#333333"/>
<path d="M12.0375 7.06313C12.0375 5.8018 12.2428 4.81913 12.6535 4.11513C13.0641 3.4038 13.7828 3.04813 14.8095 3.04813C15.8288 3.04813 16.5438 3.4038 16.9545 4.11513C17.3651 4.81913 17.5705 5.8018 17.5705 7.06313C17.5705 8.34646 17.3651 9.3438 16.9545 10.0551C16.5438 10.7665 15.8288 11.1221 14.8095 11.1221C13.7828 11.1221 13.0641 10.7665 12.6535 10.0551C12.2428 9.3438 12.0375 8.34646 12.0375 7.06313ZM16.5805 7.06313C16.5805 6.42513 16.5365 5.88613 16.4485 5.44613C16.3678 4.9988 16.1955 4.63946 15.9315 4.36813C15.6748 4.0968 15.3008 3.96113 14.8095 3.96113C14.3108 3.96113 13.9295 4.0968 13.6655 4.36813C13.4088 4.63946 13.2365 4.9988 13.1485 5.44613C13.0678 5.88613 13.0275 6.42513 13.0275 7.06313C13.0275 7.72313 13.0678 8.2768 13.1485 8.72413C13.2365 9.17146 13.4088 9.5308 13.6655 9.80213C13.9295 10.0735 14.3108 10.2091 14.8095 10.2091C15.3008 10.2091 15.6748 10.0735 15.9315 9.80213C16.1955 9.5308 16.3678 9.17146 16.4485 8.72413C16.5365 8.2768 16.5805 7.72313 16.5805 7.06313Z" fill="white"/>
</svg>
