<svg width="332" height="76" viewBox="0 0 332 76" fill="none" xmlns="http://www.w3.org/2000/svg">
<circle cx="6" cy="6" r="6" fill="#D9D9D9" fill-opacity="0.4"/>
<circle cx="38" cy="6" r="6" fill="#D9D9D9" fill-opacity="0.4"/>
<circle cx="70" cy="6" r="6" fill="#D9D9D9" fill-opacity="0.4"/>
<circle cx="102" cy="6" r="6" fill="#D9D9D9" fill-opacity="0.4"/>
<circle cx="134" cy="6" r="6" fill="#D9D9D9" fill-opacity="0.4"/>
<circle cx="166" cy="6" r="6" fill="#D9D9D9" fill-opacity="0.4"/>
<circle cx="198" cy="6" r="6" fill="#D9D9D9" fill-opacity="0.4"/>
<circle cx="230" cy="6" r="6" fill="#D9D9D9" fill-opacity="0.4"/>
<circle cx="262" cy="6" r="6" fill="#D9D9D9" fill-opacity="0.4"/>
<circle cx="294" cy="6" r="6" fill="#D9D9D9" fill-opacity="0.4"/>
<circle cx="326" cy="6" r="6" fill="#D9D9D9" fill-opacity="0.4"/>
<circle cx="6" cy="38" r="6" fill="#D9D9D9" fill-opacity="0.4"/>
<circle cx="38" cy="38" r="6" fill="#D9D9D9" fill-opacity="0.4"/>
<circle cx="70" cy="38" r="6" fill="#D9D9D9" fill-opacity="0.4"/>
<circle cx="102" cy="38" r="6" fill="#D9D9D9" fill-opacity="0.4"/>
<circle cx="134" cy="38" r="6" fill="#D9D9D9" fill-opacity="0.4"/>
<circle cx="166" cy="38" r="6" fill="#D9D9D9" fill-opacity="0.4"/>
<circle cx="198" cy="38" r="6" fill="#D9D9D9" fill-opacity="0.4"/>
<circle cx="230" cy="38" r="6" fill="#D9D9D9" fill-opacity="0.4"/>
<circle cx="262" cy="38" r="6" fill="#D9D9D9" fill-opacity="0.4"/>
<circle cx="294" cy="38" r="6" fill="#D9D9D9" fill-opacity="0.4"/>
<circle cx="326" cy="38" r="6" fill="#D9D9D9" fill-opacity="0.4"/>
<circle cx="6" cy="70" r="6" fill="#D9D9D9" fill-opacity="0.4"/>
<circle cx="38" cy="70" r="6" fill="#D9D9D9" fill-opacity="0.4"/>
<circle cx="70" cy="70" r="6" fill="#D9D9D9" fill-opacity="0.4"/>
<circle cx="102" cy="70" r="6" fill="#D9D9D9" fill-opacity="0.4"/>
<circle cx="134" cy="70" r="6" fill="#D9D9D9" fill-opacity="0.4"/>
<circle cx="166" cy="70" r="6" fill="#D9D9D9" fill-opacity="0.4"/>
<circle cx="198" cy="70" r="6" fill="#D9D9D9" fill-opacity="0.4"/>
<circle cx="230" cy="70" r="6" fill="#D9D9D9" fill-opacity="0.4"/>
<circle cx="262" cy="70" r="6" fill="#D9D9D9" fill-opacity="0.4"/>
<circle cx="294" cy="70" r="6" fill="#D9D9D9" fill-opacity="0.4"/>
<circle cx="326" cy="70" r="6" fill="#D9D9D9" fill-opacity="0.4"/>
</svg>
